<?xml version="1.0" encoding="UTF-8" standalone="no"?>
<!-- Created with Inkscape (http://www.inkscape.org/) -->

<svg
   xmlns:dc="http://purl.org/dc/elements/1.1/"
   xmlns:cc="http://creativecommons.org/ns#"
   xmlns:rdf="http://www.w3.org/1999/02/22-rdf-syntax-ns#"
   xmlns:svg="http://www.w3.org/2000/svg"
   xmlns="http://www.w3.org/2000/svg"
   xmlns:xlink="http://www.w3.org/1999/xlink"
   xmlns:sodipodi="http://sodipodi.sourceforge.net/DTD/sodipodi-0.dtd"
   xmlns:inkscape="http://www.inkscape.org/namespaces/inkscape"
   width="210mm"
   height="297mm"
   viewBox="0 0 210 297"
   version="1.1"
   id="svg108"
   inkscape:version="0.92.3 (2405546, 2018-03-11)"
   sodipodi:docname="notebookLogoRedWhite.svg">
  <defs
     id="defs102">
    <linearGradient
       id="linearGradient877"
       inkscape:collect="always">
      <stop
         id="stop873"
         offset="0"
         style="stop-color:#fc0008;stop-opacity:1" />
      <stop
         id="stop875"
         offset="1"
         style="stop-color:#ffffff;stop-opacity:1" />
    </linearGradient>
    <linearGradient
       inkscape:collect="always"
       id="linearGradient4743-4">
      <stop
         style="stop-color:#fc0008;stop-opacity:1"
         offset="0"
         id="stop4739" />
      <stop
         style="stop-color:#050000;stop-opacity:1"
         offset="1"
         id="stop4741" />
    </linearGradient>
    <inkscape:path-effect
       effect="skeletal"
       id="path-effect22"
       is_visible="true"
       pattern="m 1399.2219,5 c 0,-2.76 2.24,-5 5,-5 2.76,0 5,2.24 5,5 0,2.76 -2.24,5 -5,5 -2.76,0 -5,-2.24 -5,-5 z"
       copytype="single_stretched"
       prop_scale="0.28891385"
       scale_y_rel="false"
       spacing="0"
       normal_offset="0"
       tang_offset="0"
       prop_units="false"
       vertical_pattern="false"
       fuse_tolerance="0" />
    <inkscape:path-effect
       effect="skeletal"
       id="path-effect26"
       is_visible="true"
       pattern="m 1399.2219,5 c 0,-2.76 2.24,-5 5,-5 2.76,0 5,2.24 5,5 0,2.76 -2.24,5 -5,5 -2.76,0 -5,-2.24 -5,-5 z"
       copytype="single_stretched"
       prop_scale="0.6448595"
       scale_y_rel="false"
       spacing="0"
       normal_offset="0"
       tang_offset="0"
       prop_units="false"
       vertical_pattern="false"
       fuse_tolerance="0" />
    <inkscape:path-effect
       effect="skeletal"
       id="path-effect30"
       is_visible="true"
       pattern="m 1399.2219,5 c 0,-2.76 2.24,-5 5,-5 2.76,0 5,2.24 5,5 0,2.76 -2.24,5 -5,5 -2.76,0 -5,-2.24 -5,-5 z"
       copytype="single_stretched"
       prop_scale="0.53922043"
       scale_y_rel="false"
       spacing="0"
       normal_offset="0"
       tang_offset="0"
       prop_units="false"
       vertical_pattern="false"
       fuse_tolerance="0" />
    <inkscape:path-effect
       effect="skeletal"
       id="path-effect34"
       is_visible="true"
       pattern="m 1399.2219,5 c 0,-2.76 2.24,-5 5,-5 2.76,0 5,2.24 5,5 0,2.76 -2.24,5 -5,5 -2.76,0 -5,-2.24 -5,-5 z"
       copytype="single_stretched"
       prop_scale="0.30235161"
       scale_y_rel="false"
       spacing="0"
       normal_offset="0"
       tang_offset="0"
       prop_units="false"
       vertical_pattern="false"
       fuse_tolerance="0" />
    <inkscape:path-effect
       effect="skeletal"
       id="path-effect38"
       is_visible="true"
       pattern="m 1399.2219,5 c 0,-2.76 2.24,-5 5,-5 2.76,0 5,2.24 5,5 0,2.76 -2.24,5 -5,5 -2.76,0 -5,-2.24 -5,-5 z"
       copytype="single_stretched"
       prop_scale="-0.21769037"
       scale_y_rel="false"
       spacing="0"
       normal_offset="0"
       tang_offset="0"
       prop_units="false"
       vertical_pattern="false"
       fuse_tolerance="0" />
    <inkscape:path-effect
       effect="skeletal"
       id="path-effect50"
       is_visible="true"
       pattern="m 1399.2219,5 c 0,-2.76 2.24,-5 5,-5 2.76,0 5,2.24 5,5 0,2.76 -2.24,5 -5,5 -2.76,0 -5,-2.24 -5,-5 z"
       copytype="single_stretched"
       prop_scale="0.34793184"
       scale_y_rel="false"
       spacing="0"
       normal_offset="0"
       tang_offset="0"
       prop_units="false"
       vertical_pattern="false"
       fuse_tolerance="0" />
    <inkscape:path-effect
       effect="skeletal"
       id="path-effect54"
       is_visible="true"
       pattern="m 1399.2219,5 c 0,-2.76 2.24,-5 5,-5 2.76,0 5,2.24 5,5 0,2.76 -2.24,5 -5,5 -2.76,0 -5,-2.24 -5,-5 z"
       copytype="single_stretched"
       prop_scale="0.59167314"
       scale_y_rel="false"
       spacing="0"
       normal_offset="0"
       tang_offset="0"
       prop_units="false"
       vertical_pattern="false"
       fuse_tolerance="0" />
    <inkscape:path-effect
       effect="skeletal"
       id="path-effect58"
       is_visible="true"
       pattern="m 1399.2219,5 c 0,-2.76 2.24,-5 5,-5 2.76,0 5,2.24 5,5 0,2.76 -2.24,5 -5,5 -2.76,0 -5,-2.24 -5,-5 z"
       copytype="single_stretched"
       prop_scale="0.45947922"
       scale_y_rel="false"
       spacing="0"
       normal_offset="0"
       tang_offset="0"
       prop_units="false"
       vertical_pattern="false"
       fuse_tolerance="0" />
    <inkscape:path-effect
       effect="skeletal"
       id="path-effect62"
       is_visible="true"
       pattern="m 1399.2219,5 c 0,-2.76 2.24,-5 5,-5 2.76,0 5,2.24 5,5 0,2.76 -2.24,5 -5,5 -2.76,0 -5,-2.24 -5,-5 z"
       copytype="single_stretched"
       prop_scale="-0.23111178"
       scale_y_rel="false"
       spacing="0"
       normal_offset="0"
       tang_offset="0"
       prop_units="false"
       vertical_pattern="false"
       fuse_tolerance="0" />
    <radialGradient
       inkscape:collect="always"
       xlink:href="#linearGradient877"
       id="radialGradient4745"
       cx="1704.5928"
       cy="142.64685"
       fx="1704.5928"
       fy="142.64685"
       r="307.71457"
       gradientTransform="matrix(-0.08976349,0.49107949,-0.76098669,-0.13909931,2045.9221,-545.25403)"
       gradientUnits="userSpaceOnUse" />
    <radialGradient
       inkscape:collect="always"
       xlink:href="#linearGradient4743-4"
       id="radialGradient4770"
       gradientUnits="userSpaceOnUse"
       gradientTransform="matrix(0.33077592,-0.47060756,0.6254601,0.43961714,1038.1932,865.13764)"
       cx="1608.2933"
       cy="374.73962"
       fx="1608.2933"
       fy="374.73962"
       r="307.71457" />
    <radialGradient
       inkscape:collect="always"
       xlink:href="#linearGradient877"
       id="radialGradient1431"
       gradientUnits="userSpaceOnUse"
       gradientTransform="matrix(-0.08976349,0.49107949,-0.76098669,-0.13909931,2045.9221,-545.25403)"
       cx="1704.5928"
       cy="142.64685"
       fx="1704.5928"
       fy="142.64685"
       r="307.71457" />
    <radialGradient
       inkscape:collect="always"
       xlink:href="#linearGradient877"
       id="radialGradient1433"
       gradientUnits="userSpaceOnUse"
       gradientTransform="matrix(-0.08976349,0.49107949,-0.76098669,-0.13909931,2045.9221,-545.25403)"
       cx="1704.5928"
       cy="142.64685"
       fx="1704.5928"
       fy="142.64685"
       r="307.71457" />
    <radialGradient
       inkscape:collect="always"
       xlink:href="#linearGradient877"
       id="radialGradient1435"
       gradientUnits="userSpaceOnUse"
       gradientTransform="matrix(-0.08976349,0.49107949,-0.76098669,-0.13909931,2045.9221,-545.25403)"
       cx="1704.5928"
       cy="142.64685"
       fx="1704.5928"
       fy="142.64685"
       r="307.71457" />
    <radialGradient
       inkscape:collect="always"
       xlink:href="#linearGradient877"
       id="radialGradient1437"
       gradientUnits="userSpaceOnUse"
       gradientTransform="matrix(-0.08976349,0.49107949,-0.76098669,-0.13909931,2045.9221,-545.25403)"
       cx="1704.5928"
       cy="142.64685"
       fx="1704.5928"
       fy="142.64685"
       r="307.71457" />
    <radialGradient
       inkscape:collect="always"
       xlink:href="#linearGradient877"
       id="radialGradient1439"
       gradientUnits="userSpaceOnUse"
       gradientTransform="matrix(-0.08976349,0.49107949,-0.76098669,-0.13909931,2045.9221,-545.25403)"
       cx="1704.5928"
       cy="142.64685"
       fx="1704.5928"
       fy="142.64685"
       r="307.71457" />
    <radialGradient
       inkscape:collect="always"
       xlink:href="#linearGradient877"
       id="radialGradient1441"
       gradientUnits="userSpaceOnUse"
       gradientTransform="matrix(-0.08976349,0.49107949,-0.76098669,-0.13909931,2045.9221,-545.25403)"
       cx="1704.5928"
       cy="142.64685"
       fx="1704.5928"
       fy="142.64685"
       r="307.71457" />
    <radialGradient
       inkscape:collect="always"
       xlink:href="#linearGradient877"
       id="radialGradient1443"
       gradientUnits="userSpaceOnUse"
       gradientTransform="matrix(-0.08976349,0.49107949,-0.76098669,-0.13909931,2045.9221,-545.25403)"
       cx="1704.5928"
       cy="142.64685"
       fx="1704.5928"
       fy="142.64685"
       r="307.71457" />
    <radialGradient
       inkscape:collect="always"
       xlink:href="#linearGradient877"
       id="radialGradient1445"
       gradientUnits="userSpaceOnUse"
       gradientTransform="matrix(-0.08976349,0.49107949,-0.76098669,-0.13909931,2045.9221,-545.25403)"
       cx="1704.5928"
       cy="142.64685"
       fx="1704.5928"
       fy="142.64685"
       r="307.71457" />
  </defs>
  <sodipodi:namedview
     id="base"
     pagecolor="#ffffff"
     bordercolor="#666666"
     borderopacity="1.0"
     inkscape:pageopacity="0.0"
     inkscape:pageshadow="2"
     inkscape:zoom="0.49497475"
     inkscape:cx="-86.421185"
     inkscape:cy="574.74586"
     inkscape:document-units="mm"
     inkscape:current-layer="layer1"
     showgrid="false"
     inkscape:window-width="1920"
     inkscape:window-height="1018"
     inkscape:window-x="-8"
     inkscape:window-y="-8"
     inkscape:window-maximized="1" />
  <metadata
     id="metadata105">
    <rdf:RDF>
      <cc:Work
         rdf:about="">
        <dc:format>image/svg+xml</dc:format>
        <dc:type
           rdf:resource="http://purl.org/dc/dcmitype/StillImage" />
        <dc:title />
      </cc:Work>
    </rdf:RDF>
  </metadata>
  <g
     inkscape:label="Layer 1"
     inkscape:groupmode="layer"
     id="layer1">
    <g
       id="g73"
       transform="matrix(0.44350733,0,0,0.55486274,-718.71188,16.710254)"
       style="opacity:1;fill:url(#radialGradient4745);fill-opacity:1">
      <path
         sodipodi:nodetypes="cc"
         inkscape:original-d="m 1961.3082,256.31403 c -137.5045,12.40672 -278.9102,42.52892 -365.8591,63.05418"
         inkscape:path-effect="#path-effect22"
         inkscape:connector-curvature="0"
         id="path20"
         d="m 1961.3082,256.31403 c 0.036,0.39709 -20.6703,2.45483 -54.0038,6.72206 -35.3212,4.52168 -77.2932,10.64725 -129.7384,19.95179 -6.0384,1.07129 -12.0031,2.14692 -17.886,3.22286 0,0 0,0 0,0 -92.4464,16.90847 -164.0587,33.88712 -164.2309,33.15747 -0.1277,-0.54087 71.1565,-18.91228 163.7114,-35.98561 0,0 10e-5,0 10e-5,0 5.8865,-1.08592 11.8564,-2.16728 17.9006,-3.23966 52.018,-9.22923 95.0608,-15.21324 129.9996,-19.13469 33.4362,-3.75279 54.2171,-5.03019 54.2474,-4.69422 z"
         style="display:inline;fill:url(#radialGradient1431);fill-opacity:1;stroke:none;stroke-width:1px;stroke-linecap:butt;stroke-linejoin:miter;stroke-opacity:1" />
      <path
         sodipodi:nodetypes="cccccc"
         inkscape:original-d="m 1596.8857,321.98879 105.9174,129.70474 c 11.3722,11.61554 18.4928,8.19823 27.4847,6.66297 l 428.0953,-121.18262 c 4.0589,-2.92347 3.1972,-5.84693 -4.9049,-8.7704 L 1963.075,256.60849"
         inkscape:path-effect="#path-effect26"
         inkscape:connector-curvature="0"
         id="path24"
         d="m 1596.8857,321.98879 c 0.805,-0.65736 43.0219,49.58073 107.8185,128.00407 3.7692,3.66613 8.2004,7.08562 12.9811,7.32741 3.5896,0.41205 7.4504,-0.84787 12.0047,-1.60627 64.3658,-18.54424 140.7917,-40.35418 223.0283,-63.61568 74.2483,-21.00194 144.128,-40.61162 204.4642,-57.40968 0.5168,-0.4852 0.8882,-0.75392 0.7884,-0.9492 -0.027,0.0992 -0,0.0925 0.028,0.27843 0,0 0,0 0,0 0.021,-0.21928 -0.5342,-0.52708 -1.2419,-1.08429 -1.2001,-0.78332 -2.6633,-1.37237 -4.227,-1.95863 -114.0855,-43.62594 -189.8627,-73.28399 -189.4545,-74.36646 0.4082,-1.08246 76.8983,26.67461 191.3519,69.22352 1.7057,0.59343 3.5174,1.33567 5.2835,2.42657 1.0806,0.5728 2.3108,1.61204 3.2732,3.30086 0,0 1e-4,5e-5 1e-4,5e-5 0.7019,1.54594 0.6874,3.20076 -0.018,4.66363 -1.0043,1.62433 -2.2416,2.72736 -3.3823,3.436 -60.2709,17.34267 -130.2593,37.32599 -204.744,58.4265 -82.4992,23.3709 -159.2756,44.92855 -223.9541,62.91338 -4.2023,0.73672 -8.6617,1.99076 -13.6948,1.59386 -6.78,-0.84284 -12.254,-4.89369 -16.2888,-9.19867 -64.0237,-79.32806 -104.8214,-130.74797 -104.0163,-131.4054 z"
         style="fill:url(#radialGradient1433);fill-opacity:1;stroke:none;stroke-width:1px;stroke-linecap:butt;stroke-linejoin:miter;stroke-opacity:1" />
      <path
         sodipodi:nodetypes="cccccc"
         inkscape:original-d="M 1594.746,316.25442 1550.5764,30.624264 c 0.897,-9.003124 8.7355,-10.577782 11.1897,-11.052867 l 354.46,9.856952 c 3.9347,1.216687 7.0307,4.110746 8.6142,10.029837 l 35.6301,214.664314"
         inkscape:path-effect="#path-effect30"
         inkscape:connector-curvature="0"
         id="path28"
         d="m 1594.746,316.25442 c -1.1462,0.17724 -20.4799,-118.50471 -46.6726,-285.562408 0.3846,-4.226164 2.4999,-8.316242 6.1056,-10.914299 2.3459,-1.470046 4.8997,-2.293169 7.3793,-2.74299 0,0 10e-5,-6e-6 10e-5,-6e-6 -1.4068,-0.03641 141.5851,3.807384 140.1783,3.770972 77.8796,2.169519 151.1561,4.329577 214.8714,6.312066 5.5529,1.937831 9.134,6.797721 10.4929,11.851616 20.8915,128.716119 34.3404,214.991969 33.3694,215.153129 -0.9709,0.16115 -16.1122,-85.81223 -37.8908,-214.175494 -0.9954,-3.746505 -3.3606,-7.385198 -6.7355,-8.208063 -63.5777,-1.557321 -136.5975,-3.465525 -214.1867,-5.619336 -1.469,-0.04078 -138.2145,-3.970751 -139.6836,-4.01153 0,0 0,6e-6 0,6e-6 -1.8906,0.396182 -3.6416,0.940097 -4.9782,1.913836 -2.218,1.266648 -3.6167,3.893773 -3.9162,6.534598 25.4074,166.621613 42.8126,285.520693 41.6666,285.697903 z"
         style="fill:url(#radialGradient1435);fill-opacity:1;stroke:none;stroke-width:1px;stroke-linecap:butt;stroke-linejoin:miter;stroke-opacity:1" />
      <path
         inkscape:original-d="m 1900.1933,394.64192 128.262,-32.89837"
         inkscape:path-effect="#path-effect34"
         inkscape:connector-curvature="0"
         id="path32"
         d="m 1900.1933,394.64192 c -0.2073,-0.80832 28.3551,-8.83359 63.7554,-17.91354 35.4003,-9.07995 64.2993,-15.79315 64.5066,-14.98483 0.2073,0.80832 -28.3551,8.83359 -63.7554,17.91354 -35.4003,9.07995 -64.2993,15.79315 -64.5066,14.98483 z"
         style="fill:url(#radialGradient1437);fill-opacity:1;stroke:none;stroke-width:1px;stroke-linecap:butt;stroke-linejoin:miter;stroke-opacity:1" />
      <path
         sodipodi:nodetypes="cccccc"
         inkscape:original-d="m 2027.206,360.07781 -65.7967,-33.73124 c -2.7718,-1.78218 -5.0994,-1.34385 -7.4959,-1.24931 l -114.5196,24.15324 c -3.0345,1.00799 -2.0324,2.35238 -0.4165,3.74791 l 59.5503,40.39421"
         inkscape:path-effect="#path-effect38"
         inkscape:connector-curvature="0"
         id="path36"
         d="m 2027.206,360.07781 c 0.191,-0.37254 -26.3285,-14.37568 -65.3161,-34.56565 -2.5173,-1.51995 -5.415,-1.5439 -8.0986,-1.39766 -16.8648,3.49466 -35.559,7.40237 -55.219,11.5481 -21.3326,4.49843 -41.5034,8.79236 -59.4335,12.64557 0,0 0,10e-6 0,10e-6 -0.6202,0.18339 -1.3314,0.48273 -1.983,1.0502 0,0 0,10e-6 0,10e-6 -0.4435,0.38978 -0.709,1.00118 -0.6744,1.73116 0.3113,1.38599 1.2275,2.19614 1.9153,2.66597 35.6171,23.9396 59.8994,39.97845 60.1309,39.6371 0.2315,-0.3413 -23.6397,-16.96605 -58.9697,-41.15132 -0.6047,-0.6466 -1.2687,-1.03935 -1.156,-1.3726 -0.044,0.0502 0.027,-0.0151 0.085,-0.0969 0,0 0,0 0,0 0.2119,-0.24571 0.6471,-0.38535 1.162,-0.57901 0,0 0,0 0,0 17.9248,-3.70891 38.0593,-7.91575 59.3355,-12.40391 19.6082,-4.13629 38.2417,-8.10136 55.0512,-11.7089 2.6242,-0.0632 5.0993,-0.15132 6.8932,1.10097 39.2271,19.9074 66.0863,33.2694 66.2773,32.89682 z"
         style="fill:url(#radialGradient1439);fill-opacity:1;stroke:none;stroke-width:1px;stroke-linecap:butt;stroke-linejoin:miter;stroke-opacity:1" />
      <path
         inkscape:original-d="m 1613.2695,278.45653 326.0687,-47.4736"
         inkscape:path-effect="#path-effect50"
         inkscape:connector-curvature="0"
         id="path48"
         d="m 1613.2695,278.45653 c -0.1384,-0.95027 72.7887,-12.3556 162.7837,-25.45831 89.995,-13.10271 163.1466,-22.96556 163.285,-22.01529 0.1384,0.95027 -72.7887,12.3556 -162.7837,25.45831 -89.995,13.10271 -163.1466,22.96556 -163.285,22.01529 z"
         style="fill:url(#radialGradient4770);fill-opacity:1;stroke:none;stroke-width:1px;stroke-linecap:butt;stroke-linejoin:miter;stroke-opacity:1" />
      <path
         inkscape:original-d="M 1938.9218,227.65145 1911.8535,50.250104 1579.1219,48.584363 1613.2695,275.12505"
         inkscape:path-effect="#path-effect54"
         inkscape:connector-curvature="0"
         id="path52"
         d="m 1938.9218,227.65145 c -1.1711,0.17868 -12.6182,-70.72527 -28.3274,-175.942966 -56.0264,-0.190106 -119.9309,-0.521791 -189.718,-0.968125 -6.6684,-0.04265 -133.7409,-0.949809 -140.4093,-0.992458 20.5903,131.653669 34.2256,225.162639 32.8024,225.377149 -1.4212,0.21424 -16.0081,-93.48104 -35.4928,-227.704225 -7.8171,-0.01839 150.4947,0.443142 142.6777,0.424749 71.0329,0.258637 136.06,0.572439 192.6582,0.94615 16.7266,107.356306 26.9795,178.681166 25.8092,178.859726 z"
         style="fill:url(#radialGradient1441);fill-opacity:1;stroke:none;stroke-width:1px;stroke-linecap:butt;stroke-linejoin:miter;stroke-opacity:1" />
      <path
         inkscape:original-d="m 1707.2313,366.90224 -52.4146,-50.64782 289.7527,-51.23675 78.9163,32.97997"
         inkscape:path-effect="#path-effect58"
         inkscape:connector-curvature="0"
         id="path56"
         d="m 1707.2313,366.90224 c -0.5294,0.54783 -20.978,-18.76025 -53.1482,-50.87203 71.4506,-13.07951 80.0336,-14.70403 151.4842,-27.78354 53.6309,-9.79065 100.0285,-18.14266 139.1923,-24.94413 48.3781,20.54396 79.0114,34.01239 78.7261,34.6951 -0.2851,0.68229 -31.3257,-11.62248 -79.1064,-31.26484 -38.9758,7.01589 -84.9401,14.99612 -138.11,24.09102 -41.5547,7.10805 -109.1644,18.54676 -150.719,25.65481 32.2759,30.16423 52.2115,49.87463 51.681,50.42361 z"
         style="fill:url(#radialGradient1443);fill-opacity:1;stroke:none;stroke-width:1px;stroke-linecap:butt;stroke-linejoin:miter;stroke-opacity:1" />
      <path
         inkscape:original-d="M 1708.2167,367.15721 2024.291,300.52759"
         inkscape:path-effect="#path-effect62"
         inkscape:connector-curvature="0"
         id="path60"
         d="m 1708.2167,367.15721 c 0.1316,0.62415 71.039,-13.79433 158.2755,-32.1841 87.2365,-18.38978 157.9304,-33.82137 157.7988,-34.44552 -0.1316,-0.62415 -71.039,13.79433 -158.2755,32.1841 -87.2365,18.38978 -157.9304,33.82137 -157.7988,34.44552 z"
         style="fill:url(#radialGradient1445);fill-opacity:1;stroke:none;stroke-width:1px;stroke-linecap:butt;stroke-linejoin:miter;stroke-opacity:1" />
    </g>
  </g>
</svg>
