<?xml version="1.0" encoding="UTF-8" standalone="no"?>
<!-- Created with Inkscape (http://www.inkscape.org/) -->

<svg
   xmlns:dc="http://purl.org/dc/elements/1.1/"
   xmlns:cc="http://creativecommons.org/ns#"
   xmlns:rdf="http://www.w3.org/1999/02/22-rdf-syntax-ns#"
   xmlns:svg="http://www.w3.org/2000/svg"
   xmlns="http://www.w3.org/2000/svg"
   xmlns:sodipodi="http://sodipodi.sourceforge.net/DTD/sodipodi-0.dtd"
   xmlns:inkscape="http://www.inkscape.org/namespaces/inkscape"
   version="1.1"
   id="svg10"
   width="236"
   height="214"
   viewBox="0 0 236 214"
   sodipodi:docname="trebleClefG.svg"
   inkscape:version="0.92.3 (2405546, 2018-03-11)">
  <metadata
     id="metadata16">
    <rdf:RDF>
      <cc:Work
         rdf:about="">
        <dc:format>image/svg+xml</dc:format>
        <dc:type
           rdf:resource="http://purl.org/dc/dcmitype/StillImage" />
        <dc:title></dc:title>
      </cc:Work>
    </rdf:RDF>
  </metadata>
  <defs
     id="defs14">
    <inkscape:path-effect
       effect="skeletal"
       id="path-effect3798"
       is_visible="true"
       pattern="m 3.024735,13.06596 c 0,-2.76 2.24,-5.0000001 5,-5.0000001 2.76,0 5,2.2400001 5,5.0000001 0,2.76 -2.24,5 -5,5 -2.76,0 -5,-2.24 -5,-5 z"
       copytype="single_stretched"
       prop_scale="0.2737436"
       scale_y_rel="false"
       spacing="0"
       normal_offset="0"
       tang_offset="0"
       prop_units="false"
       vertical_pattern="false"
       fuse_tolerance="0" />
    <inkscape:path-effect
       effect="skeletal"
       id="path-effect3794"
       is_visible="true"
       pattern="m 3.024735,13.06596 c 0,-2.76 2.24,-5.0000001 5,-5.0000001 2.76,0 5,2.2400001 5,5.0000001 0,2.76 -2.24,5 -5,5 -2.76,0 -5,-2.24 -5,-5 z"
       copytype="single_stretched"
       prop_scale="0.1341136"
       scale_y_rel="false"
       spacing="0"
       normal_offset="0"
       tang_offset="0"
       prop_units="false"
       vertical_pattern="false"
       fuse_tolerance="0" />
    <inkscape:path-effect
       effect="skeletal"
       id="path-effect3790"
       is_visible="true"
       pattern="m 3.024735,13.06596 c 0,-2.76 2.24,-5.0000001 5,-5.0000001 2.76,0 5,2.2400001 5,5.0000001 0,2.76 -2.24,5 -5,5 -2.76,0 -5,-2.24 -5,-5 z"
       copytype="single_stretched"
       prop_scale="0.1874563"
       scale_y_rel="false"
       spacing="0"
       normal_offset="0"
       tang_offset="0"
       prop_units="false"
       vertical_pattern="false"
       fuse_tolerance="0" />
    <inkscape:path-effect
       effect="skeletal"
       id="path-effect3786"
       is_visible="true"
       pattern="m 3.024735,13.06596 c 0,-2.76 2.24,-5.0000001 5,-5.0000001 2.76,0 5,2.2400001 5,5.0000001 0,2.76 -2.24,5 -5,5 -2.76,0 -5,-2.24 -5,-5 z"
       copytype="single_stretched"
       prop_scale="0.35455331"
       scale_y_rel="false"
       spacing="0"
       normal_offset="0"
       tang_offset="0"
       prop_units="false"
       vertical_pattern="false"
       fuse_tolerance="0" />
    <inkscape:path-effect
       effect="skeletal"
       id="path-effect3782"
       is_visible="true"
       pattern="m 3.024735,13.06596 c 0,-2.76 2.24,-5.0000001 5,-5.0000001 2.76,0 5,2.2400001 5,5.0000001 0,2.76 -2.24,5 -5,5 -2.76,0 -5,-2.24 -5,-5 z"
       copytype="single_stretched"
       prop_scale="0.31963655"
       scale_y_rel="false"
       spacing="0"
       normal_offset="0"
       tang_offset="0"
       prop_units="false"
       vertical_pattern="false"
       fuse_tolerance="0" />
    <inkscape:path-effect
       effect="skeletal"
       id="path-effect3778"
       is_visible="true"
       pattern="M 0,5 C 0,2.24 2.24,0 5,0 7.76,0 10,2.24 10,5 10,7.76 7.76,10 5,10 2.24,10 0,7.76 0,5 Z"
       copytype="single_stretched"
       prop_scale="0.24871558"
       scale_y_rel="false"
       spacing="0"
       normal_offset="0"
       tang_offset="0"
       prop_units="false"
       vertical_pattern="false"
       fuse_tolerance="0" />
    <inkscape:path-effect
       effect="skeletal"
       id="path-effect3774"
       is_visible="true"
       pattern="m 3.024735,13.06596 c 0,-2.76 2.24,-5.0000001 5,-5.0000001 2.76,0 5,2.2400001 5,5.0000001 0,2.76 -2.24,5 -5,5 -2.76,0 -5,-2.24 -5,-5 z"
       copytype="single_stretched"
       prop_scale="0.31366064"
       scale_y_rel="false"
       spacing="0"
       normal_offset="0"
       tang_offset="0"
       prop_units="false"
       vertical_pattern="false"
       fuse_tolerance="0" />
    <inkscape:path-effect
       effect="skeletal"
       id="path-effect3770"
       is_visible="true"
       pattern="m 3.024735,13.06596 c 0,-2.76 2.24,-5.0000001 5,-5.0000001 2.76,0 5,2.2400001 5,5.0000001 0,2.76 -2.24,5 -5,5 -2.76,0 -5,-2.24 -5,-5 z"
       copytype="single_stretched"
       prop_scale="-0.20869202"
       scale_y_rel="false"
       spacing="0"
       normal_offset="0"
       tang_offset="0"
       prop_units="false"
       vertical_pattern="false"
       fuse_tolerance="0" />
    <inkscape:path-effect
       effect="skeletal"
       id="path-effect3766"
       is_visible="true"
       pattern="m 3.024735,13.06596 c 0,-2.76 2.24,-5.0000001 5,-5.0000001 2.76,0 5,2.2400001 5,5.0000001 0,2.76 -2.24,5 -5,5 -2.76,0 -5,-2.24 -5,-5 z"
       copytype="single_stretched"
       prop_scale="0.24205692"
       scale_y_rel="false"
       spacing="0"
       normal_offset="0"
       tang_offset="0"
       prop_units="false"
       vertical_pattern="false"
       fuse_tolerance="0" />
    <inkscape:path-effect
       effect="skeletal"
       id="path-effect3762"
       is_visible="true"
       pattern="m 3.024735,13.06596 c 0,-2.76 2.24,-5.0000001 5,-5.0000001 2.76,0 5,2.2400001 5,5.0000001 0,2.76 -2.24,5 -5,5 -2.76,0 -5,-2.24 -5,-5 z"
       copytype="single_stretched"
       prop_scale="0.23692779"
       scale_y_rel="false"
       spacing="0"
       normal_offset="0"
       tang_offset="0"
       prop_units="false"
       vertical_pattern="false"
       fuse_tolerance="0" />
    <inkscape:path-effect
       effect="skeletal"
       id="path-effect3758"
       is_visible="true"
       pattern="M 0,5 C 0,2.24 2.24,0 5,0 7.76,0 10,2.24 10,5 10,7.76 7.76,10 5,10 2.24,10 0,7.76 0,5 Z"
       copytype="single_stretched"
       prop_scale="0.41280402"
       scale_y_rel="false"
       spacing="0"
       normal_offset="0"
       tang_offset="0"
       prop_units="false"
       vertical_pattern="false"
       fuse_tolerance="0" />
    <inkscape:path-effect
       effect="skeletal"
       id="path-effect3754"
       is_visible="true"
       pattern="M 0,5 C 0,2.24 2.24,0 5,0 7.76,0 10,2.24 10,5 10,7.76 7.76,10 5,10 2.24,10 0,7.76 0,5 Z"
       copytype="single_stretched"
       prop_scale="0.36819787"
       scale_y_rel="false"
       spacing="0"
       normal_offset="0"
       tang_offset="0"
       prop_units="false"
       vertical_pattern="false"
       fuse_tolerance="0" />
    <inkscape:path-effect
       effect="skeletal"
       id="path-effect3750"
       is_visible="true"
       pattern="m 3.024735,13.06596 c 0,-2.76 2.24,-5.0000001 5,-5.0000001 2.76,0 5,2.2400001 5,5.0000001 0,2.76 -2.24,5 -5,5 -2.76,0 -5,-2.24 -5,-5 z"
       copytype="single_stretched"
       prop_scale="0.4112858"
       scale_y_rel="false"
       spacing="0"
       normal_offset="0"
       tang_offset="0"
       prop_units="false"
       vertical_pattern="false"
       fuse_tolerance="0" />
    <inkscape:path-effect
       effect="skeletal"
       id="path-effect3746"
       is_visible="true"
       pattern="m 3.024735,13.06596 c 0,-2.76 2.24,-5.0000001 5,-5.0000001 2.76,0 5,2.2400001 5,5.0000001 0,2.76 -2.24,5 -5,5 -2.76,0 -5,-2.24 -5,-5 z"
       copytype="single_stretched"
       prop_scale="0.32225078"
       scale_y_rel="false"
       spacing="0"
       normal_offset="0"
       tang_offset="0"
       prop_units="false"
       vertical_pattern="false"
       fuse_tolerance="0" />
  </defs>
  <sodipodi:namedview
     pagecolor="#ffffff"
     bordercolor="#666666"
     borderopacity="1"
     objecttolerance="10"
     gridtolerance="10"
     guidetolerance="10"
     inkscape:pageopacity="0"
     inkscape:pageshadow="2"
     inkscape:window-width="1460"
     inkscape:window-height="1002"
     id="namedview12"
     showgrid="false"
     inkscape:snap-global="false"
     inkscape:zoom="1.9836449"
     inkscape:cx="-43.591658"
     inkscape:cy="144.17594"
     inkscape:window-x="167"
     inkscape:window-y="0"
     inkscape:window-maximized="0"
     inkscape:current-layer="svg10" />
  <g
     id="g3822"
     transform="translate(11.090695,-4.5371025)"
     style="fill:#808080">
    <path
       id="path3744"
       d="m 115.94817,67.552414 c -0.27632,0.09928 -2.27336,-3.492747 -3.84965,-10.180519 -1.57086,-6.664693 -2.61751,-16.342438 -0.33133,-27.232326 0,10e-7 0,-3e-6 0,-3e-6 0.67326,-3.220647 1.64901,-6.545658 3.05212,-9.79174 0.74049,-1.713112 1.57902,-3.355684 2.52018,-4.918919 2.47236,-3.894092 5.58975,-7.1902918 9.428,-9.2644299 1.95242,0.2695723 3.51517,1.1765991 4.66358,2.169183 1.64277,1.5989278 2.79826,3.4681849 3.68264,5.1779899 5.93457,11.38439 4.9752,19.827366 5.2844,19.760444 -0.53246,0.115242 -1.57758,-8.276447 -7.59121,-18.483299 -0.91731,-1.544613 -1.98431,-3.15352 -3.3389,-4.350278 -0.70821,-0.7388251 -1.46119,-1.4112778 -2.15775,-1.4793193 -2.93844,1.7197923 -5.2666,4.6153473 -7.2234,8.1154283 -0.857,1.438594 -1.62504,2.957036 -2.31109,4.549191 -1.29888,3.01439 -2.23725,6.138886 -2.92895,9.186383 0,1e-6 0,2e-6 0,3e-6 -2.32868,10.302565 -1.72993,19.596265 -0.74322,26.174443 0.98475,6.565102 2.20871,10.43694 1.84458,10.567768 z"
       style="fill:#808080;stroke:none;stroke-width:1px;stroke-linecap:butt;stroke-linejoin:miter;stroke-opacity:1"
       inkscape:connector-curvature="0" />
    <path
       id="path3748"
       d="m 140.65017,36.29682 c -0.48095,-0.0063 2.79702,10.40463 -2.44139,26.712569 -2.92387,9.019326 -8.67608,18.489485 -17.86692,27.134516 -5.06763,5.19473 -10.43864,11.159075 -14.70327,17.708055 -3.27508,5.02936 -5.744022,10.15928 -7.225357,15.51031 -1.18414,4.23241 -1.643899,8.43119 -1.153179,12.3852 0.433302,3.56568 1.624518,6.88051 3.350286,9.67432 3.7848,6.191 10.02215,9.77493 15.22259,11.41242 0,0 0,0 0,0 3.48219,1.08844 6.65948,1.41738 9.32308,1.37181 5.70401,-0.10254 8.78293,-1.72787 8.94057,-1.42392 0.0612,0.11796 -2.5267,2.61441 -8.81453,3.31854 -2.83641,0.3201 -6.30965,0.23242 -10.15838,-0.726 0,0 -1e-5,0 -1e-5,0 -5.78793,-1.42993 -12.84124,-5.06521 -17.481467,-12.05579 -2.090497,-3.17712 -3.569599,-6.9575 -4.153307,-11.072 -0.634404,-4.54264 -0.219216,-9.28422 1.054835,-13.95318 1.603978,-5.82123 4.225776,-11.36398 7.671239,-16.70042 4.49965,-6.96918 10.08629,-13.087183 15.38898,-18.286035 8.89237,-8.161691 14.59775,-16.876552 17.74104,-25.294224 5.60839,-14.890463 4.70534,-25.724038 5.30519,-25.716171 z"
       style="fill:#808080;stroke:none;stroke-width:1px;stroke-linecap:butt;stroke-linejoin:miter;stroke-opacity:1"
       inkscape:connector-curvature="0" />
    <path
       id="path3760"
       d="m 113.1755,199.88457 c 0.01,-0.43681 3.61985,-0.34186 6.27426,-3.35287 1.26458,-1.38197 2.16817,-3.39621 2.37091,-5.74526 0.0161,-0.19613 0.027,-0.39383 0.0326,-0.59283 0.063,-2.24241 -0.54782,-4.32786 -1.46674,-5.97939 -2.21219,-4.02971 -5.85285,-5.31686 -5.69868,-5.75486 -0.0145,0.0412 4.12449,-0.42922 7.5083,4.64758 1.25661,1.90339 2.10133,4.39602 2.0249,7.1527 -0.007,0.24383 -0.0207,0.48637 -0.0417,0.72726 -0.24383,2.90529 -1.53879,5.36449 -3.28012,6.99222 -4.37746,3.98179 -7.71686,1.601 -7.7237,1.90545 z"
       style="fill:#808080;stroke:none;stroke-width:1px;stroke-linecap:butt;stroke-linejoin:miter;stroke-opacity:1"
       inkscape:connector-curvature="0" />
    <path
       id="path3764"
       d="m 114.68786,178.45936 c 0.0119,0.28834 -1.17841,0.47577 -3.10088,1.06592 -1.79821,0.55201 -4.64215,1.59311 -6.46734,3.86966 0,0 0,0 0,0 -1.1924,1.40378 -1.982,3.28068 -2.27231,5.43954 -0.0972,0.7231 -0.13362,1.44629 -0.1174,2.15131 0.0966,3.05488 1.03174,5.67172 2.28247,7.63317 0.73834,1.1493 1.49135,1.96536 2.27995,2.5584 1.53091,1.15295 2.84565,1.21801 2.85841,1.47989 0.005,0.11268 -1.31472,0.87078 -3.59019,-0.27875 -1.05585,-0.53186 -2.13981,-1.3937 -3.11339,-2.64122 -1.66204,-2.11508 -2.95755,-5.10704 -3.11591,-8.65892 -0.0434,-0.83855 -0.0114,-1.7016 0.10691,-2.57012 0.35317,-2.59293 1.42204,-4.88117 2.99371,-6.60489 0,0 0,0 0,0 2.57011,-2.69372 5.84542,-3.52067 7.87852,-3.74321 2.15467,-0.23585 3.36884,0.0899 3.37745,0.29922 z"
       style="fill:#808080;stroke:none;stroke-width:1px;stroke-linecap:butt;stroke-linejoin:miter;stroke-opacity:1"
       inkscape:connector-curvature="0" />
    <path
       id="path3768"
       d="m 109.89869,200.64076 c -0.11972,0.11784 0.58689,1.30215 2.40008,2.85384 1.73681,1.48634 4.77157,3.48636 8.79454,4.01301 3.01243,0.36864 6.34788,-0.14567 9.53188,-1.70398 0.52184,-0.2554 1.02652,-0.53272 1.51229,-0.82899 3.59408,-2.1849 6.10107,-5.1915 7.64742,-8.06104 3.16939,-5.82248 1.83593,-9.90391 1.62146,-9.88416 -0.35996,0.0332 -0.1169,4.14499 -3.1231,9.01511 -1.58811,2.54687 -3.96758,5.20402 -7.22052,7.14763 -0.43713,0.26021 -0.88961,0.50538 -1.35574,0.73287 -2.8424,1.38721 -5.76669,1.91987 -8.41561,1.69452 -7.15483,-0.53962 -11.09248,-5.2743 -11.3927,-4.97881 z"
       style="fill:#808080;stroke:none;stroke-width:1px;stroke-linecap:butt;stroke-linejoin:miter;stroke-opacity:1"
       inkscape:connector-curvature="0" />
    <path
       id="path3772"
       d="m 95.027091,148.21201 c 0.899365,-0.6295 -8.815862,-6.41817 -10.624725,-23.38728 10e-7,0 0,-1e-5 0,-1e-5 -0.653129,-6.38057 0.458834,-13.65024 3.916002,-20.84239 3.060553,-6.362382 7.435189,-12.146404 12.700722,-17.811046 0.48687,-0.524946 0.97948,-1.04708 1.47774,-1.566955 4.79114,-4.998987 10.02166,-9.687747 14.66955,-13.839687 5.90571,-6.174487 10.41324,-11.801082 13.85292,-17.704166 2.73761,-4.705287 4.35006,-8.788644 5.09634,-12.690887 0.64888,-3.3891 0.52566,-6.098631 0.16478,-8.187504 -0.17741,-1.034723 -0.41561,-1.925114 -0.59648,-2.566249 -0.28852,-1.028958 -0.46959,-1.580345 -0.32706,-1.637041 0.0743,-0.02957 0.45588,0.415764 0.95736,1.38676 0.32018,0.618828 0.70324,1.489457 1.0256,2.565975 0.63851,2.141189 1.03655,5.077566 0.56406,8.723016 -0.54139,4.174597 -2.04248,8.65219 -4.72736,13.615693 -3.37638,6.250487 -7.94858,12.261766 -13.90948,18.640031 -4.59161,4.218934 -9.80819,8.961352 -14.498,13.855502 -0.48998,0.511328 -0.9741,1.023987 -1.4523,1.538586 -5.139271,5.543052 -9.378422,11.009321 -12.345571,16.975032 -3.325686,6.68047 -4.560126,13.39189 -4.15316,19.33757 0,0 10e-7,10e-6 10e-7,10e-6 0.964657,15.0658 8.609048,23.31507 8.209061,23.59504 z"
       style="fill:#808080;stroke:none;stroke-width:1px;stroke-linecap:butt;stroke-linejoin:miter;stroke-opacity:1"
       inkscape:connector-curvature="0" />
    <path
       id="path3780"
       d="m 121.49352,147.45583 c 0.15768,-0.13419 -5.03711,-2.70681 -8.03005,-11.15633 -0.9615,-2.70029 -1.49486,-6.22472 -0.4108,-9.79593 0.85866,-2.6928 2.62459,-5.16815 5.07549,-6.99978 2.17595,-1.62588 4.73907,-2.75327 7.48425,-3.36937 0.23548,-0.0529 0.47107,-0.10166 0.70655,-0.14651 3.1594,-0.61179 6.31802,-0.54952 9.24536,0.0601 3.22232,0.66413 6.09685,2.01373 8.40532,3.85508 2.82716,2.26939 4.54725,5.16771 5.39557,7.85086 0,0 0,0 0,0 2.29225,7.38177 -0.62708,11.34464 -0.39702,11.38385 -0.4345,-0.074 0.73988,-4.69683 -1.72861,-10.62062 0,0 0,0 0,0 -0.92023,-2.2427 -2.55041,-4.60772 -4.98565,-6.38036 -2.00184,-1.46939 -4.49462,-2.5208 -7.29173,-3.04896 -2.55053,-0.47539 -5.29905,-0.49612 -8.03372,0.0372 -0.20352,0.0405 -0.40687,0.0838 -0.60984,0.13018 -2.36586,0.54049 -4.53606,1.45552 -6.32664,2.76612 -1.97831,1.44737 -3.45377,3.35464 -4.16622,5.40142 -0.99079,2.68917 -0.67678,5.71719 -0.0331,8.14824 2.0199,7.54783 6.07326,11.5678 5.70085,11.88475 z"
       style="fill:#808080;stroke:none;stroke-width:1px;stroke-linecap:butt;stroke-linejoin:miter;stroke-opacity:1"
       inkscape:connector-curvature="0" />
    <path
       id="path3784"
       d="m 115.6961,144.17904 c 0.85533,-0.56904 -7.17535,-4.70165 -8.78097,-18.18221 0,0 0,0 0,0 -0.26186,-2.25715 -0.19591,-4.79136 0.5137,-7.34257 0.57788,-2.05252 1.58941,-4.07899 3.0529,-5.87605 2.74473,-3.3193 6.71619,-5.63373 11.2069,-6.81287 4.45509,-1.19342 9.29256,-1.39629 14.14472,-0.59485 1.24174,0.20052 2.48776,0.46887 3.72515,0.81129 3.42047,0.94652 6.61954,2.41555 9.42433,4.41356 1.89727,1.35457 3.57662,2.96332 4.9443,4.79259 1.42322,1.9079 2.45775,4.02922 3.06971,6.22371 1.56496,5.84342 0.14886,11.62038 -1.82374,15.93312 -6.56193,14.46921 -16.29941,18.45628 -15.78323,18.98527 -0.40054,-0.41047 7.91579,-6.74493 13.19217,-20.08706 1.57795,-4.03611 2.71582,-9.22328 1.23912,-13.91426 -0.53702,-1.78423 -1.42779,-3.51773 -2.62522,-5.07557 -1.15279,-1.50398 -2.59684,-2.84434 -4.23973,-4.00238 -2.43983,-1.72434 -5.27467,-2.99775 -8.34411,-3.84511 -1.11035,-0.30653 -2.2335,-0.5523 -3.35647,-0.74298 -4.39702,-0.72867 -8.74188,-0.60283 -12.70572,0.4017 -3.95667,1.02622 -7.3977,2.85151 -9.67319,5.52135 -1.22799,1.41391 -2.11781,3.04438 -2.65741,4.70773 -0.68063,2.07184 -0.83181,4.26265 -0.71501,6.27372 1e-5,0 1e-5,0 1e-5,0 0.64136,11.62978 6.61914,18.12756 6.19179,18.41187 z"
       style="fill:#808080;stroke:none;stroke-width:1px;stroke-linecap:butt;stroke-linejoin:miter;stroke-opacity:1"
       inkscape:connector-curvature="0" />
    <path
       id="path3788"
       d="m 141.40636,185.01296 c -0.27045,0.029 -0.83931,-3.56573 -1.85807,-9.33193 -1.12339,-6.35836 -2.40757,-13.11885 -4.44613,-22.4395 -3.82409,-17.48447 -7.44722,-31.5815 -6.80299,-31.74801 0.35637,-0.0921 4.79545,13.78347 8.63424,31.34763 1.9702,9.01457 3.20738,16.55502 3.92468,22.64733 0.68868,5.8493 0.79229,9.49829 0.54827,9.52448 z"
       style="fill:#808080;stroke:none;stroke-width:1px;stroke-linecap:butt;stroke-linejoin:miter;stroke-opacity:1"
       inkscape:connector-curvature="0" />
    <path
       id="path3792"
       d="m 122.2497,90.74205 c 0.36397,-0.0674 1.22397,2.926832 1.91966,6.683556 0.69569,3.756724 0.96492,6.860364 0.60095,6.927764 -0.36396,0.0674 -1.22397,-2.92683 -1.91966,-6.683558 -0.69569,-3.756724 -0.96492,-6.860361 -0.60095,-6.927762 z"
       style="fill:#808080;stroke:none;stroke-width:1px;stroke-linecap:butt;stroke-linejoin:miter;stroke-opacity:1"
       inkscape:connector-curvature="0" />
    <path
       id="path3796"
       d="m 118.21672,66.292108 c -0.45564,0.137496 -3.55512,-6.487393 -3.44734,-16.863736 0,0 0,-2e-6 0,-2e-6 0.0258,-2.879361 0.29164,-6.016984 0.96811,-9.227189 0.43989,-2.087546 1.02449,-4.068241 1.74573,-5.935827 0.81017,-2.102007 1.79129,-3.993501 2.9907,-5.655127 1.12576,-1.574152 2.42684,-2.839818 3.89725,-3.71978 1.57036,-0.939056 3.21372,-1.231535 4.60054,-1.099228 3.56146,0.394842 4.3172,2.496208 4.36869,2.423157 -0.16897,0.239739 -1.80282,-1.007238 -4.42504,-0.848167 -1.06864,0.04479 -2.26747,0.437058 -3.42016,1.260862 -1.11854,0.796056 -2.08458,1.921085 -3.02084,3.354689 -0.9824,1.520797 -1.78401,3.249171 -2.49516,5.216697 -0.63167,1.751338 -1.15269,3.603481 -1.56378,5.565476 -0.63093,3.011213 -0.94103,5.987702 -1.07899,8.739137 0,0 0,10e-7 0,10e-7 -0.47282,9.708543 1.44386,16.618972 0.88029,16.789037 z"
       style="fill:#808080;stroke:none;stroke-width:1px;stroke-linecap:butt;stroke-linejoin:miter;stroke-opacity:1"
       inkscape:connector-curvature="0" />
  </g>
</svg>
